<mxfile host="app.diagrams.net" modified="2023-07-01T21:46:42.846Z" agent="Mozilla/5.0 (Macintosh; Intel Mac OS X 10_15_7) AppleWebKit/605.1.15 (KHTML, like Gecko) Version/16.1 Safari/605.1.15" version="21.5.2" etag="BIHqc4FrnPi8Z6YVir8E" type="github">
  <diagram name="Page-1" id="-h5ZZIltonSlygj1UC0J">
    <mxGraphModel>
      <root>
        <mxCell id="0" />
        <mxCell id="1" parent="0" />
      </root>
    </mxGraphModel>
  </diagram>
</mxfile>
